<?xml version="1.0" standalone="no"?>
<!DOCTYPE svg PUBLIC "-//W3C//DTD SVG 20010904//EN"
 "http://www.w3.org/TR/2001/REC-SVG-20010904/DTD/svg10.dtd">
<svg version="1.0" xmlns="http://www.w3.org/2000/svg"
 width="1200.000000pt" height="1200.000000pt" viewBox="0 0 1200.000000 1200.000000"
 preserveAspectRatio="xMidYMid meet">
<metadata>
Created by potrace 1.11, written by Peter Selinger 2001-2013
</metadata>
<g transform="translate(0.000000,1200.000000) scale(0.100000,-0.100000)"
fill="#000000" stroke="none">
<path d="M5867 9384 c-1 -1 -51 -4 -112 -8 -60 -3 -119 -8 -130 -10 -11 -2
-45 -7 -75 -10 -71 -8 -89 -11 -244 -42 -441 -88 -932 -304 -1290 -567 -112
-82 -213 -164 -262 -212 l-42 -40 32 -32 31 -32 85 70 c47 39 94 78 105 86
123 102 376 263 543 347 286 144 677 272 947 310 244 35 297 39 510 40 156 0
306 -7 395 -19 19 -2 58 -7 85 -10 63 -8 106 -15 125 -20 8 -2 31 -7 50 -10
97 -16 336 -81 461 -126 153 -55 232 -89 411 -179 459 -232 877 -599 1187
-1043 33 -48 61 -90 61 -92 0 -2 17 -30 38 -62 21 -32 60 -98 87 -148 27 -49
50 -92 52 -94 5 -7 83 31 83 40 0 8 -16 38 -83 159 -30 54 -186 300 -197 310
-3 3 -27 34 -54 70 -133 174 -283 333 -482 510 -211 188 -549 403 -818 520
-322 140 -611 222 -931 266 -27 3 -58 8 -67 10 -50 9 -492 25 -501 18z"/>
<path d="M5897 8975 c-1 -2 -54 -6 -117 -9 -131 -8 -168 -12 -271 -31 -9 -2
-34 -6 -55 -10 -77 -12 -95 -16 -211 -46 -65 -17 -125 -32 -133 -34 -74 -18
-343 -128 -467 -192 -198 -102 -428 -255 -575 -382 -85 -72 -318 -310 -379
-386 -239 -296 -425 -641 -524 -967 -39 -132 -82 -299 -90 -354 -4 -22 -8 -46
-10 -54 -2 -8 -7 -35 -10 -60 -3 -25 -8 -61 -10 -80 -24 -175 -24 -572 -1
-710 3 -14 7 -47 11 -75 3 -27 8 -57 10 -65 2 -8 6 -32 9 -52 19 -125 87 -366
151 -532 52 -135 185 -396 262 -516 37 -58 70 -107 73 -110 3 -3 39 -50 80
-104 142 -189 348 -397 530 -536 456 -347 970 -552 1515 -605 44 -4 94 -9 110
-11 38 -4 368 -4 415 0 19 2 58 6 85 10 28 3 73 8 100 11 28 3 75 10 105 15
30 6 66 14 80 16 225 44 504 141 728 253 577 287 1037 747 1331 1331 98 195
216 522 237 660 3 19 8 38 10 41 5 9 42 239 52 319 15 137 7 599 -13 710 -3
14 -8 43 -11 65 -27 189 -117 498 -203 695 -365 847 -1098 1473 -1988 1701
-84 21 -167 41 -185 43 -18 3 -78 12 -133 20 -55 9 -138 18 -185 22 -92 6
-318 12 -323 9z m378 -109 c166 -16 340 -50 526 -105 550 -161 1024 -477 1414
-942 105 -126 261 -372 351 -556 91 -187 200 -499 229 -658 45 -252 56 -354
59 -555 14 -949 -456 -1860 -1238 -2398 -329 -226 -767 -408 -1104 -458 -20
-3 -44 -7 -52 -9 -8 -3 -37 -7 -65 -11 -27 -3 -61 -8 -75 -10 -178 -27 -549
-22 -765 11 -321 50 -649 162 -940 321 -261 143 -436 275 -651 488 -252 251
-455 543 -590 850 -20 45 -42 95 -49 111 -70 158 -155 482 -180 685 -3 25 -8
63 -11 85 -3 22 -7 139 -9 260 -5 367 36 625 160 1000 31 92 64 170 130 305
312 638 891 1165 1555 1413 94 35 304 101 357 112 82 18 268 47 366 59 106 12
460 14 582 2z"/>
<path d="M5967 8014 c-1 -1 -34 -4 -72 -5 -39 -1 -108 -11 -155 -21 -47 -11
-92 -21 -101 -23 -9 -2 -49 -17 -90 -35 -246 -104 -431 -273 -553 -504 -37
-71 -90 -222 -100 -288 -3 -21 -9 -55 -12 -75 -31 -188 9 -421 106 -618 213
-434 684 -673 1162 -590 449 78 801 432 883 890 13 74 14 295 2 366 -23 130
-99 314 -177 428 -90 134 -248 275 -388 348 -122 63 -275 107 -426 122 -42 4
-78 6 -79 5z m173 -94 c360 -62 660 -319 778 -665 44 -129 56 -199 55 -336 -3
-332 -168 -647 -433 -823 -179 -120 -357 -177 -555 -181 -234 -4 -447 66 -641
211 -187 140 -325 364 -380 619 -14 66 -13 271 2 350 72 383 322 670 693 795
133 44 329 57 481 30z"/>
<path d="M5810 7774 c-109 -23 -152 -38 -166 -59 -11 -17 -10 -23 1 -39 14
-18 16 -18 97 5 68 19 109 24 224 25 78 1 146 4 153 8 16 10 14 41 -5 56 -22
19 -222 21 -304 4z"/>
<path d="M6225 7720 c-24 -27 -8 -48 56 -75 60 -26 89 -20 89 19 0 23 -16 34
-92 61 -32 12 -38 12 -53 -5z"/>
<path d="M5882 7329 c-67 -13 -142 -51 -197 -101 -130 -117 -170 -312 -97
-471 35 -76 114 -162 180 -196 232 -118 517 0 588 245 57 195 -32 401 -210
488 -77 38 -180 51 -264 35z m218 -98 c151 -77 226 -230 190 -383 -18 -74 -32
-98 -96 -163 -86 -88 -230 -119 -346 -75 -149 56 -240 211 -216 365 19 121 91
213 205 261 76 32 194 30 263 -5z"/>
<path d="M5875 7172 c-68 -22 -136 -91 -160 -162 -22 -65 -15 -151 16 -207 68
-124 238 -177 353 -109 155 91 187 275 71 404 -72 80 -176 107 -280 74z m159
-76 c146 -61 153 -267 11 -336 -147 -71 -305 63 -259 219 30 103 148 159 248
117z"/>
<path d="M5911 6979 c-31 -29 -26 -85 11 -112 58 -43 135 17 108 84 -22 52
-79 65 -119 28z"/>
<path d="M5393 6427 c-39 -40 -44 -62 -19 -79 19 -13 31 -9 63 20 42 37 54 63
40 82 -21 27 -42 21 -84 -23z"/>
<path d="M5568 6333 c-33 -38 -49 -82 -38 -103 18 -34 46 -24 78 28 22 36 27
53 21 70 -10 26 -40 29 -61 5z"/>
<path d="M5757 6267 c-23 -17 -45 -90 -36 -115 11 -29 45 -28 63 1 8 12 18 41
22 64 5 35 3 43 -13 52 -15 7 -25 7 -36 -2z"/>
<path d="M6132 6262 c-18 -18 -19 -26 -10 -64 6 -23 20 -51 31 -61 20 -17 21
-17 39 1 17 17 18 24 8 65 -7 25 -20 53 -30 62 -17 15 -20 15 -38 -3z"/>
<path d="M5934 6239 c-11 -18 -12 -102 -2 -121 10 -21 41 -23 57 -4 11 13 14
84 4 119 -5 19 -48 24 -59 6z"/>
<path d="M6622 5218 c-16 -16 -15 -43 3 -58 20 -17 61 -5 68 20 10 38 -43 66
-71 38z"/>
<path d="M4455 4953 l0 -268 146 -3 c133 -2 147 -1 151 15 10 39 0 43 -118 43
l-114 0 0 95 0 95 105 0 105 0 0 30 0 30 -105 0 -105 0 0 85 0 85 115 0 115 0
0 30 0 30 -148 0 -147 0 0 -267z"/>
<path d="M6313 5150 c-18 -7 -23 -17 -23 -45 0 -32 -2 -35 -30 -35 -27 0 -30
-3 -30 -30 0 -27 3 -30 29 -30 l30 0 3 -151 c3 -147 4 -151 28 -171 20 -16 35
-19 78 -16 60 5 77 17 67 47 -5 18 -12 20 -50 14 -42 -5 -45 -4 -55 21 -5 15
-10 79 -10 142 l0 114 53 0 c52 0 54 1 52 28 -1 25 -4 27 -53 30 l-52 3 0 45
c0 46 -2 48 -37 34z"/>
<path d="M4870 5066 c0 -5 75 -187 99 -241 10 -22 28 -66 41 -98 35 -85 41
-80 115 98 4 11 9 25 11 30 1 6 18 46 37 90 55 128 55 127 16 123 -32 -3 -34
-6 -76 -114 -23 -62 -44 -124 -47 -139 -7 -36 -14 -42 -22 -19 -13 39 -64 171
-85 222 -20 48 -24 52 -55 52 -19 0 -34 -2 -34 -4z"/>
<path d="M5414 5056 c-121 -55 -131 -285 -15 -363 38 -26 105 -31 162 -12 52
18 59 26 48 58 l-10 28 -37 -19 c-76 -39 -164 -5 -177 70 l-5 32 125 0 125 0
1 28 c3 86 -10 130 -49 165 -27 25 -126 33 -168 13z m131 -71 c14 -13 25 -36
25 -50 l0 -25 -95 0 c-52 0 -95 2 -95 4 0 1 5 16 10 32 22 62 110 84 155 39z"/>
<path d="M5800 5058 c-1 -20 -1 -319 0 -350 0 -24 4 -28 30 -28 l30 0 0 126
c0 100 3 132 17 154 27 47 97 65 136 36 27 -21 33 -59 32 -193 l-1 -123 34 0
34 0 -4 158 c-3 128 -7 162 -21 183 -36 54 -115 64 -191 24 -46 -25 -53 -22
-47 18 0 4 -10 7 -24 7 -14 0 -25 -6 -25 -12z"/>
<path d="M6622 4876 l0 -196 32 0 31 0 0 193 0 192 -31 3 -32 3 0 -195z"/>
<path d="M6955 5056 c-49 -24 -64 -41 -81 -87 -38 -107 -6 -246 66 -281 41
-20 124 -21 169 -2 33 14 37 24 21 54 -9 17 -13 17 -38 4 -52 -27 -121 -10
-152 39 -18 29 -21 126 -5 164 23 55 97 76 166 48 12 -4 18 1 23 21 4 15 2 32
-3 37 -18 18 -132 19 -166 3z"/>
<path d="M7344 5060 c-62 -14 -64 -16 -53 -49 l10 -30 41 15 c99 35 163 4 150
-73 -3 -20 -10 -23 -53 -24 -27 -1 -52 -2 -56 -3 -5 -1 -23 -6 -40 -10 -18 -4
-44 -22 -59 -39 -22 -26 -25 -38 -21 -75 7 -64 41 -95 108 -98 52 -3 90 12
116 46 10 13 12 11 18 -13 5 -19 14 -27 29 -27 21 0 21 3 20 159 -1 174 -9
202 -60 221 -29 11 -104 11 -150 0z m146 -255 c0 -29 -6 -39 -32 -55 -42 -26
-88 -25 -116 0 -26 25 -27 29 -7 57 17 24 36 30 108 32 l47 1 0 -35z"/>
<path d="M3227 7948 c-254 -366 -424 -746 -522 -1163 -33 -141 -49 -230 -61
-340 -4 -27 -8 -61 -9 -75 -24 -173 -23 -526 0 -725 6 -50 25 -182 31 -215 2
-14 6 -38 9 -55 35 -194 122 -480 207 -680 278 -650 763 -1208 1367 -1573 112
-67 362 -193 469 -236 l63 -25 9 25 c26 66 25 70 -27 89 -154 58 -396 182
-538 275 -395 260 -697 554 -943 919 -329 487 -510 997 -559 1581 -14 166 -6
568 12 655 3 11 7 38 10 60 30 250 104 525 211 789 45 109 169 356 220 437 58
93 120 186 156 236 l38 52 -40 31 -39 31 -64 -93z"/>
<path d="M9185 6926 c-22 -5 -41 -10 -43 -11 -1 -1 13 -67 32 -146 32 -135 53
-247 61 -329 2 -19 6 -53 9 -75 18 -139 25 -469 12 -582 -3 -27 -8 -77 -11
-113 -4 -36 -8 -76 -10 -90 -2 -14 -6 -43 -10 -65 -3 -23 -7 -52 -10 -65 -3
-14 -8 -41 -11 -60 -14 -86 -77 -316 -118 -435 -171 -497 -421 -897 -791
-1262 -216 -214 -381 -344 -625 -490 -378 -228 -840 -390 -1250 -438 -25 -3
-60 -7 -79 -10 -74 -9 -212 -17 -316 -18 -110 0 -364 11 -374 17 -3 2 -35 7
-71 10 -36 4 -91 11 -124 17 -32 6 -60 9 -61 7 -2 -2 -7 -24 -10 -49 l-6 -45
73 -12 c175 -28 278 -36 508 -36 215 -1 333 4 420 18 14 2 51 7 84 11 66 8 83
10 186 31 446 90 884 275 1240 523 74 51 212 153 220 161 3 3 55 49 116 102
585 511 984 1250 1100 2038 23 157 29 262 29 485 -1 238 -4 288 -31 490 -16
119 -77 396 -92 420 -5 7 -20 7 -47 1z"/>
</g>
</svg>
